# xmcd CD database file
#
# Track frame offsets:
#	150
#	18351
#	39058
#	59889
#	87236
#	105492
#	124798
#	143214
#	161854
#	182431
#
# Disc length: 2703 seconds
#
# Revision: 0
# Processed by: cddbd v1.5PL3 Copyright (c) Steve Scherf et al.
# Submitted via: CDex 1.50beta9
#
DISCID=7f0a8d0a
DTITLE=井上昌己 - バナ・オレンジ・ベリー
DYEAR=2002
DGENRE=JPop
TTITLE0=DO YOU LOVE ME？
TTITLE1=MY EMOTION
TTITLE2=アイツとの関係
TTITLE3=いちばん愛してる証拠［Shoko］
TTITLE4=恋多き女でしょうか？
TTITLE5=同時進行
TTITLE6=Happy Everlasting
TTITLE7=私はワ・タ・シ！
TTITLE8=あなたに帰らない
TTITLE9=向日葵
EXTD=YEAR: 2002
EXTT0=
EXTT1=
EXTT2=
EXTT3=
EXTT4=
EXTT5=
EXTT6=
EXTT7=
EXTT8=
EXTT9=
PLAYORDER=
